<mxfile host="app.diagrams.net" modified="2022-11-02T07:00:17.751Z" agent="5.0 (Macintosh; Intel Mac OS X 10_15_7) AppleWebKit/537.36 (KHTML, like Gecko) Chrome/107.0.0.0 Safari/537.36" etag="Am7SIqAQWDFcd27ljlwM" version="20.5.1" type="github">
  <diagram id="6G9suVu5MrnyZq5hW0H_" name="第 1 页">
    <mxGraphModel dx="1185" dy="1064" grid="0" gridSize="10" guides="0" tooltips="1" connect="1" arrows="1" fold="1" page="1" pageScale="1" pageWidth="827" pageHeight="1169" math="0" shadow="0">
      <root>
        <mxCell id="0" />
        <mxCell id="1" parent="0" />
        <mxCell id="yHKoSa8AHNWiwGMDhcCc-9" value="" style="rounded=0;whiteSpace=wrap;html=1;" vertex="1" parent="1">
          <mxGeometry x="70" y="200" width="220" height="140" as="geometry" />
        </mxCell>
        <mxCell id="yHKoSa8AHNWiwGMDhcCc-6" value="StatisticType" style="rounded=0;whiteSpace=wrap;" vertex="1" parent="1">
          <mxGeometry x="80" y="210" width="200" height="40" as="geometry" />
        </mxCell>
        <mxCell id="yHKoSa8AHNWiwGMDhcCc-7" value="AppInfo" style="rounded=0;whiteSpace=wrap;" vertex="1" parent="1">
          <mxGeometry x="80" y="250" width="200" height="40" as="geometry" />
        </mxCell>
        <mxCell id="yHKoSa8AHNWiwGMDhcCc-8" value="List&lt;PerfData&gt;" style="rounded=0;whiteSpace=wrap;fillColor=#d5e8d4;strokeColor=#82b366;" vertex="1" parent="1">
          <mxGeometry x="80" y="290" width="200" height="40" as="geometry" />
        </mxCell>
        <mxCell id="yHKoSa8AHNWiwGMDhcCc-10" value="ClientPerformanceMetric" style="text;strokeColor=none;fillColor=none;align=center;verticalAlign=middle;whiteSpace=wrap;rounded=0;" vertex="1" parent="1">
          <mxGeometry x="80" y="170" width="200" height="30" as="geometry" />
        </mxCell>
        <mxCell id="yHKoSa8AHNWiwGMDhcCc-12" value="数据统计纬度，&lt;br&gt;会对应前端首页上的每个主 Title" style="shape=document;whiteSpace=wrap;html=1;boundedLbl=1;" vertex="1" parent="1">
          <mxGeometry x="375" y="150" width="230" height="60" as="geometry" />
        </mxCell>
        <mxCell id="yHKoSa8AHNWiwGMDhcCc-14" value="" style="endArrow=classic;html=1;rounded=0;" edge="1" parent="1" source="yHKoSa8AHNWiwGMDhcCc-12" target="yHKoSa8AHNWiwGMDhcCc-6">
          <mxGeometry width="50" height="50" relative="1" as="geometry">
            <mxPoint x="480" y="320" as="sourcePoint" />
            <mxPoint x="530" y="270" as="targetPoint" />
          </mxGeometry>
        </mxCell>
        <mxCell id="yHKoSa8AHNWiwGMDhcCc-15" value="用于关联测试的应用信息" style="shape=document;whiteSpace=wrap;html=1;boundedLbl=1;" vertex="1" parent="1">
          <mxGeometry x="390" y="240" width="200" height="30" as="geometry" />
        </mxCell>
        <mxCell id="yHKoSa8AHNWiwGMDhcCc-16" value="" style="endArrow=classic;html=1;rounded=0;" edge="1" parent="1" source="yHKoSa8AHNWiwGMDhcCc-15" target="yHKoSa8AHNWiwGMDhcCc-7">
          <mxGeometry width="50" height="50" relative="1" as="geometry">
            <mxPoint x="400" y="210.9230769230769" as="sourcePoint" />
            <mxPoint x="290" y="226.1538461538462" as="targetPoint" />
          </mxGeometry>
        </mxCell>
        <mxCell id="yHKoSa8AHNWiwGMDhcCc-19" value="perf_data_list" style="swimlane;fontStyle=0;childLayout=stackLayout;horizontal=1;startSize=30;horizontalStack=0;resizeParent=1;resizeParentMax=0;resizeLast=0;collapsible=1;marginBottom=0;html=0;fillColor=#d5e8d4;strokeColor=#82b366;" vertex="1" parent="1">
          <mxGeometry x="390" y="320" width="140" height="120" as="geometry" />
        </mxCell>
        <mxCell id="yHKoSa8AHNWiwGMDhcCc-20" value="perf_data" style="text;strokeColor=#b85450;fillColor=#f8cecc;align=left;verticalAlign=middle;spacingLeft=4;spacingRight=4;overflow=hidden;points=[[0,0.5],[1,0.5]];portConstraint=eastwest;rotatable=0;html=0;backgroundOutline=0;expand=1;sketch=0;glass=0;labelBorderColor=none;" vertex="1" parent="yHKoSa8AHNWiwGMDhcCc-19">
          <mxGeometry y="30" width="140" height="30" as="geometry" />
        </mxCell>
        <mxCell id="yHKoSa8AHNWiwGMDhcCc-21" value="Item 2" style="text;strokeColor=#82b366;fillColor=#d5e8d4;align=left;verticalAlign=middle;spacingLeft=4;spacingRight=4;overflow=hidden;points=[[0,0.5],[1,0.5]];portConstraint=eastwest;rotatable=0;html=0;backgroundOutline=0;expand=1;sketch=0;glass=0;labelBorderColor=none;" vertex="1" parent="yHKoSa8AHNWiwGMDhcCc-19">
          <mxGeometry y="60" width="140" height="30" as="geometry" />
        </mxCell>
        <mxCell id="yHKoSa8AHNWiwGMDhcCc-22" value="Item 3" style="text;strokeColor=#82b366;fillColor=#d5e8d4;align=left;verticalAlign=middle;spacingLeft=4;spacingRight=4;overflow=hidden;points=[[0,0.5],[1,0.5]];portConstraint=eastwest;rotatable=0;html=0;backgroundOutline=0;expand=1;sketch=0;glass=0;labelBorderColor=none;" vertex="1" parent="yHKoSa8AHNWiwGMDhcCc-19">
          <mxGeometry y="90" width="140" height="30" as="geometry" />
        </mxCell>
        <mxCell id="yHKoSa8AHNWiwGMDhcCc-23" value="" style="endArrow=classic;html=1;rounded=0;" edge="1" parent="1" source="yHKoSa8AHNWiwGMDhcCc-19" target="yHKoSa8AHNWiwGMDhcCc-8">
          <mxGeometry width="50" height="50" relative="1" as="geometry">
            <mxPoint x="470" y="630" as="sourcePoint" />
            <mxPoint x="520" y="580" as="targetPoint" />
          </mxGeometry>
        </mxCell>
        <mxCell id="yHKoSa8AHNWiwGMDhcCc-24" value="" style="rounded=0;whiteSpace=wrap;html=1;fillColor=#f8cecc;strokeColor=#b85450;" vertex="1" parent="1">
          <mxGeometry x="600" y="350" width="180" height="140" as="geometry" />
        </mxCell>
        <mxCell id="yHKoSa8AHNWiwGMDhcCc-25" value="" style="endArrow=classic;html=1;rounded=0;" edge="1" parent="1" source="yHKoSa8AHNWiwGMDhcCc-24" target="yHKoSa8AHNWiwGMDhcCc-20">
          <mxGeometry width="50" height="50" relative="1" as="geometry">
            <mxPoint x="770" y="560" as="sourcePoint" />
            <mxPoint x="820" y="510" as="targetPoint" />
          </mxGeometry>
        </mxCell>
        <mxCell id="yHKoSa8AHNWiwGMDhcCc-26" value="type" style="rounded=0;whiteSpace=wrap;html=1;fillColor=#f8cecc;strokeColor=#b85450;" vertex="1" parent="1">
          <mxGeometry x="620" y="365" width="140" height="35" as="geometry" />
        </mxCell>
        <mxCell id="yHKoSa8AHNWiwGMDhcCc-28" value="value" style="rounded=0;whiteSpace=wrap;html=1;fillColor=#f8cecc;strokeColor=#b85450;" vertex="1" parent="1">
          <mxGeometry x="620" y="400" width="140" height="35" as="geometry" />
        </mxCell>
        <mxCell id="yHKoSa8AHNWiwGMDhcCc-29" value="detail_data_map" style="rounded=0;whiteSpace=wrap;html=1;fillColor=#fff2cc;strokeColor=#d6b656;" vertex="1" parent="1">
          <mxGeometry x="620" y="435" width="140" height="35" as="geometry" />
        </mxCell>
        <mxCell id="yHKoSa8AHNWiwGMDhcCc-31" value="detail_data_map" style="swimlane;fontStyle=0;childLayout=stackLayout;horizontal=1;startSize=30;horizontalStack=0;resizeParent=1;resizeParentMax=0;resizeLast=0;collapsible=1;marginBottom=0;glass=0;labelBorderColor=none;sketch=0;strokeColor=#d6b656;html=0;fillColor=#fff2cc;" vertex="1" parent="1">
          <mxGeometry x="880" y="420" width="140" height="120" as="geometry" />
        </mxCell>
        <mxCell id="yHKoSa8AHNWiwGMDhcCc-32" value="&lt;type,value&gt;" style="text;strokeColor=#d6b656;fillColor=#fff2cc;align=left;verticalAlign=middle;spacingLeft=4;spacingRight=4;overflow=hidden;points=[[0,0.5],[1,0.5]];portConstraint=eastwest;rotatable=0;glass=0;labelBorderColor=none;sketch=0;html=0;" vertex="1" parent="yHKoSa8AHNWiwGMDhcCc-31">
          <mxGeometry y="30" width="140" height="30" as="geometry" />
        </mxCell>
        <mxCell id="yHKoSa8AHNWiwGMDhcCc-33" value="&lt;type,value&gt;" style="text;strokeColor=#d6b656;fillColor=#fff2cc;align=left;verticalAlign=middle;spacingLeft=4;spacingRight=4;overflow=hidden;points=[[0,0.5],[1,0.5]];portConstraint=eastwest;rotatable=0;glass=0;labelBorderColor=none;sketch=0;html=0;" vertex="1" parent="yHKoSa8AHNWiwGMDhcCc-31">
          <mxGeometry y="60" width="140" height="30" as="geometry" />
        </mxCell>
        <mxCell id="yHKoSa8AHNWiwGMDhcCc-34" value="&lt;type,value&gt;" style="text;strokeColor=#d6b656;fillColor=#fff2cc;align=left;verticalAlign=middle;spacingLeft=4;spacingRight=4;overflow=hidden;points=[[0,0.5],[1,0.5]];portConstraint=eastwest;rotatable=0;glass=0;labelBorderColor=none;sketch=0;html=0;" vertex="1" parent="yHKoSa8AHNWiwGMDhcCc-31">
          <mxGeometry y="90" width="140" height="30" as="geometry" />
        </mxCell>
        <mxCell id="yHKoSa8AHNWiwGMDhcCc-35" value="" style="endArrow=classic;html=1;rounded=0;" edge="1" parent="1" source="yHKoSa8AHNWiwGMDhcCc-31" target="yHKoSa8AHNWiwGMDhcCc-29">
          <mxGeometry width="50" height="50" relative="1" as="geometry">
            <mxPoint x="990" y="720" as="sourcePoint" />
            <mxPoint x="1040" y="670" as="targetPoint" />
          </mxGeometry>
        </mxCell>
        <mxCell id="yHKoSa8AHNWiwGMDhcCc-36" value="这里的 value 应该是首页上会直接展示的，也是卡合流的" style="shape=document;whiteSpace=wrap;html=1;boundedLbl=1;fillColor=#f8cecc;strokeColor=#b85450;" vertex="1" parent="1">
          <mxGeometry x="730" y="200" width="220" height="60" as="geometry" />
        </mxCell>
        <mxCell id="yHKoSa8AHNWiwGMDhcCc-37" value="" style="endArrow=classic;html=1;rounded=0;" edge="1" parent="1" source="yHKoSa8AHNWiwGMDhcCc-36" target="yHKoSa8AHNWiwGMDhcCc-40">
          <mxGeometry width="50" height="50" relative="1" as="geometry">
            <mxPoint x="770" y="170" as="sourcePoint" />
            <mxPoint x="820" y="120" as="targetPoint" />
          </mxGeometry>
        </mxCell>
        <mxCell id="yHKoSa8AHNWiwGMDhcCc-38" value="详细数据这里会在详情页面进一步读取展示" style="shape=document;whiteSpace=wrap;html=1;boundedLbl=1;fillColor=#fff2cc;strokeColor=#d6b656;" vertex="1" parent="1">
          <mxGeometry x="880" y="320" width="240" height="60" as="geometry" />
        </mxCell>
        <mxCell id="yHKoSa8AHNWiwGMDhcCc-39" value="" style="endArrow=classic;html=1;rounded=0;fillColor=#fff2cc;strokeColor=#d6b656;" edge="1" parent="1" source="yHKoSa8AHNWiwGMDhcCc-38" target="yHKoSa8AHNWiwGMDhcCc-31">
          <mxGeometry width="50" height="50" relative="1" as="geometry">
            <mxPoint x="969.6847619047619" y="310" as="sourcePoint" />
            <mxPoint x="830.0022222222221" y="420" as="targetPoint" />
          </mxGeometry>
        </mxCell>
        <mxCell id="yHKoSa8AHNWiwGMDhcCc-40" value="PerfData" style="text;html=1;strokeColor=none;fillColor=none;align=center;verticalAlign=middle;whiteSpace=wrap;rounded=0;glass=0;labelBorderColor=none;sketch=0;" vertex="1" parent="1">
          <mxGeometry x="660" y="320" width="60" height="30" as="geometry" />
        </mxCell>
      </root>
    </mxGraphModel>
  </diagram>
</mxfile>
